<svg width="900" height="720" viewBox="0 0 900 720" fill="none" xmlns="http://www.w3.org/2000/svg">
  <rect width="900" height="720" rx="44" fill="#020617"/>
  <rect x="72" y="74" width="756" height="572" rx="40" fill="url(#panel)" stroke="#1E3A8A" stroke-width="4"/>
  <path d="M152 506H744" stroke="#38BDF8" stroke-opacity=".26" stroke-width="8" stroke-linecap="round"/>
  <path d="M200 436C288 260 352 468 450 320C536 190 624 332 700 220" stroke="#38BDF8" stroke-width="9" stroke-linecap="round"/>
  <path d="M200 472C312 388 398 398 484 428C580 462 644 394 700 334" stroke="#22C55E" stroke-width="9" stroke-linecap="round" opacity=".88"/>
  <g opacity=".58" stroke="#60A5FA">
    <path d="M154 158H310V236"/>
    <path d="M746 562H590V484"/>
    <path d="M154 562H280V490"/>
    <path d="M746 158H620V230"/>
  </g>
  <circle cx="450" cy="320" r="64" fill="#38BDF8" fill-opacity=".12" stroke="#38BDF8" stroke-width="4"/>
  <circle cx="450" cy="320" r="18" fill="#38BDF8"/>
  <circle cx="310" cy="236" r="12" fill="#22C55E"/>
  <circle cx="590" cy="484" r="12" fill="#22C55E"/>
  <defs>
    <linearGradient id="panel" x1="72" y1="74" x2="828" y2="646" gradientUnits="userSpaceOnUse">
      <stop stop-color="#0B3D91"/>
      <stop offset=".5" stop-color="#0F172A"/>
      <stop offset="1" stop-color="#020617"/>
    </linearGradient>
  </defs>
</svg>
