<svg width="900" height="560" viewBox="0 0 900 560" fill="none" xmlns="http://www.w3.org/2000/svg">
  <rect width="900" height="560" rx="40" fill="url(#bg)"/>
  <rect x="176" y="126" width="548" height="308" rx="36" fill="#FFFFFF" stroke="#BFDBFE" stroke-width="4"/>
  <rect x="224" y="176" width="452" height="208" rx="26" fill="#020617"/>
  <path d="M250 330C330 214 414 380 500 260C568 165 612 242 650 190" stroke="#38BDF8" stroke-width="8" stroke-linecap="round"/>
  <path d="M250 354C338 280 402 306 472 324C550 344 594 306 650 244" stroke="#22C55E" stroke-width="8" stroke-linecap="round" opacity=".8"/>
  <g stroke="#0B3D91" stroke-width="7" stroke-linecap="round">
    <path d="M176 198H92"/>
    <path d="M176 278H92"/>
    <path d="M176 358H92"/>
    <path d="M724 198H808"/>
    <path d="M724 278H808"/>
    <path d="M724 358H808"/>
  </g>
  <g fill="#38BDF8">
    <circle cx="250" cy="330" r="10"/>
    <circle cx="500" cy="260" r="10"/>
    <circle cx="650" cy="190" r="10"/>
  </g>
  <defs>
    <linearGradient id="bg" x1="0" y1="0" x2="900" y2="560" gradientUnits="userSpaceOnUse">
      <stop stop-color="#E0F2FE"/>
      <stop offset=".48" stop-color="#EEF2FF"/>
      <stop offset="1" stop-color="#F8FAFC"/>
    </linearGradient>
  </defs>
</svg>
